<?xml version="1.0" encoding="UTF-8"?>
<svg xmlns="http://www.w3.org/2000/svg" xmlns:xlink="http://www.w3.org/1999/xlink" width="35px" height="35px" viewBox="0 0 35 35" version="1.1">
<g id="surface1">
<path style="fill-rule:nonzero;fill:rgb(0%,0%,0%);fill-opacity:1;stroke-width:0.982026;stroke-linecap:butt;stroke-linejoin:miter;stroke:rgb(100%,100%,100%);stroke-opacity:1;stroke-miterlimit:10;" d="M 591.408147 300.5 C 591.408147 461.146763 461.146763 591.408147 300.5 591.408147 C 139.853237 591.408147 9.591853 461.146763 9.591853 300.5 C 9.591853 139.853237 139.853237 9.591853 300.5 9.591853 C 461.146763 9.591853 591.408147 139.853237 591.408147 300.5 Z M 591.408147 300.5 " transform="matrix(0.0582363,0,0,0.0582363,0,0)"/>
<path style="fill-rule:nonzero;fill:rgb(100%,100%,100%);fill-opacity:1;stroke-width:5.89216;stroke-linecap:butt;stroke-linejoin:miter;stroke:rgb(0%,0%,0%);stroke-opacity:1;stroke-miterlimit:10;" d="M 539.223103 222.423661 C 537.546205 199.08125 463.695647 164.000558 419.023103 140.993527 C 386.021763 124.291629 366.502679 148.975558 358.520647 163.128571 C 340.946763 156.823437 321.427679 153.067187 300.902455 153.067187 C 280.377232 153.067187 260.858147 156.823437 242.881808 163.128571 C 234.899777 148.975558 215.24654 124.291629 182.379353 140.993527 C 137.706808 163.598103 63.85625 199.08125 62.179353 222.423661 C 60.502455 245.833147 85.521763 321.695982 85.521763 332.629353 C 85.521763 343.495647 55.069308 378.978795 85.521763 377.704353 C 110.943527 376.429911 156.957589 365.630692 174.397321 337.257589 C 178.556027 352.617969 182.379353 368.917411 182.379353 383.607031 C 182.379353 429.017411 203.642411 465.775 229.869085 465.775 C 241.204911 465.775 256.632366 457.457589 271.254911 444.444866 C 279.974777 448.201116 289.969085 450.280469 300.5 450.280469 C 311.030915 450.280469 320.958147 448.201116 329.745089 444.444866 C 344.032254 457.457589 359.795089 465.775 371.130915 465.775 C 397.424665 465.775 418.754799 429.017411 418.754799 383.607031 C 418.754799 369.319866 422.443973 353.154576 426.669754 338.129576 C 444.646094 366.100223 490.123549 376.496987 515.142857 378.173884 C 545.595312 379.850781 515.142857 344.367634 515.142857 333.098884 C 515.075781 321.830134 540.9 245.430692 539.223103 222.423661 Z M 539.223103 222.423661 " transform="matrix(0.0582363,0,0,0.0582363,0,0)"/>
<path style="fill:none;stroke-width:6.87418;stroke-linecap:round;stroke-linejoin:miter;stroke:rgb(0%,0%,0%);stroke-opacity:1;stroke-miterlimit:10;" d="M 335.983147 444.444866 C 335.983147 444.444866 320.555692 418.620647 308.482031 409.028795 C 303.853795 405.675 300.097545 374.820089 300.097545 374.820089 " transform="matrix(0.0582363,0,0,0.0582363,0,0)"/>
<path style="fill:none;stroke-width:6.87418;stroke-linecap:round;stroke-linejoin:miter;stroke:rgb(0%,0%,0%);stroke-opacity:1;stroke-miterlimit:10;" d="M 265.016853 444.444866 C 265.016853 444.444866 280.444308 418.620647 292.517969 409.028795 C 297.146205 405.675 300.902455 374.820089 300.902455 374.820089 " transform="matrix(0.0582363,0,0,0.0582363,0,0)"/>
<path style="fill:none;stroke-width:6.87418;stroke-linecap:round;stroke-linejoin:miter;stroke:rgb(0%,0%,0%);stroke-opacity:1;stroke-miterlimit:10;" d="M 425.730692 335.580692 C 425.730692 335.580692 413.120424 312.171205 413.992411 297.146205 C 414.931473 281.71875 409.900781 211.624442 397.692969 181.574442 C 385.619308 151.524442 372.271205 169.03125 372.271205 169.03125 " transform="matrix(0.0582363,0,0,0.0582363,0,0)"/>
<path style="fill:none;stroke-width:6.87418;stroke-linecap:round;stroke-linejoin:miter;stroke:rgb(0%,0%,0%);stroke-opacity:1;stroke-miterlimit:10;" d="M 175.269308 335.580692 C 175.269308 335.580692 187.879576 312.171205 187.007589 297.146205 C 186.068527 282.121205 191.099219 211.624442 203.307031 181.574442 C 215.380692 151.524442 228.728795 169.03125 228.728795 169.03125 " transform="matrix(0.0582363,0,0,0.0582363,0,0)"/>
<path style=" stroke:none;fill-rule:nonzero;fill:rgb(0%,0%,0%);fill-opacity:1;" d="M 20.535156 20.175781 C 20.535156 20.980469 19.175781 21.636719 17.5 21.636719 C 15.824219 21.636719 14.464844 20.980469 14.464844 20.175781 C 14.464844 19.371094 15.824219 18.71875 17.5 18.71875 C 19.175781 18.71875 20.535156 19.371094 20.535156 20.175781 Z M 20.535156 20.175781 "/>
<path style="fill-rule:nonzero;fill:rgb(0%,0%,0%);fill-opacity:1;stroke-width:4.91013;stroke-linecap:butt;stroke-linejoin:miter;stroke:rgb(0%,0%,0%);stroke-opacity:1;stroke-miterlimit:10;" d="M 377.301897 289.700781 C 377.301897 297.548661 373.411496 303.920871 368.582031 303.920871 C 363.752567 303.920871 359.795089 297.548661 359.795089 289.700781 C 359.795089 281.852902 363.752567 275.480692 368.582031 275.480692 C 373.411496 275.480692 377.301897 281.852902 377.301897 289.700781 Z M 377.301897 289.700781 " transform="matrix(0.0582363,0,0,0.0582363,0,0)"/>
<path style="fill-rule:nonzero;fill:rgb(0%,0%,0%);fill-opacity:1;stroke-width:4.91013;stroke-linecap:butt;stroke-linejoin:miter;stroke:rgb(0%,0%,0%);stroke-opacity:1;stroke-miterlimit:10;" d="M 241.204911 289.700781 C 241.204911 297.548661 237.247433 303.920871 232.417969 303.920871 C 227.588504 303.920871 223.698103 297.548661 223.698103 289.700781 C 223.698103 281.852902 227.588504 275.480692 232.417969 275.480692 C 237.247433 275.480692 241.204911 281.852902 241.204911 289.700781 Z M 241.204911 289.700781 " transform="matrix(0.0582363,0,0,0.0582363,0,0)"/>
</g>
</svg>
