<svg width="60" height="60" xmlns="http://www.w3.org/2000/svg" xmlns:xlink="http://www.w3.org/1999/xlink" overflow="hidden"><defs><filter id="fx0" x="-10%" y="-10%" width="120%" height="120%" filterUnits="userSpaceOnUse" primitiveUnits="userSpaceOnUse"><feComponentTransfer color-interpolation-filters="sRGB"><feFuncR type="discrete" tableValues="0 0"/><feFuncG type="discrete" tableValues="0 0"/><feFuncB type="discrete" tableValues="0 0"/><feFuncA type="linear" slope="0.4" intercept="0"/></feComponentTransfer><feGaussianBlur stdDeviation="2.22222 2.22222"/></filter><clipPath id="clip1"><rect x="-8" y="-8" width="60" height="60"/></clipPath><clipPath id="clip2"><rect x="-4" y="-4" width="69" height="69"/></clipPath><clipPath id="clip3"><rect x="0" y="0" width="60" height="60"/></clipPath><clipPath id="clip4"><rect x="7" y="7" width="46" height="46"/></clipPath><clipPath id="clip5"><rect x="7" y="7" width="46" height="46"/></clipPath><clipPath id="clip6"><rect x="7" y="7" width="46" height="46"/></clipPath><clipPath id="clip7"><rect x="0" y="0" width="44" height="44"/></clipPath><clipPath id="clip8"><rect x="0" y="0" width="44" height="44"/></clipPath><clipPath id="clip9"><rect x="0" y="0" width="44" height="44"/></clipPath></defs><g clip-path="url(#clip1)" transform="translate(8 8)"><g clip-path="url(#clip2)" filter="url(#fx0)" transform="translate(-8 -8)"><g clip-path="url(#clip3)"><g clip-path="url(#clip4)"><g clip-path="url(#clip5)"><g clip-path="url(#clip6)"><path d="M49.9634 7.56006 10.0366 7.56006C8.66873 7.56006 7.55997 8.67175 7.55997 10.0387L7.55997 49.9613C7.55997 51.3282 8.66873 52.4399 10.0366 52.4399L31.532 52.4399 31.532 35.0592 25.6833 35.0592 25.6833 28.2864 31.532 28.2864 31.532 23.2885C31.532 17.4948 35.0724 14.343 40.2438 14.343 42.7204 14.343 44.8492 14.5266 45.4693 14.6083L45.4693 20.667 41.883 20.667C39.0708 20.667 38.5262 22.0032 38.5262 23.9615L38.5262 28.2864 45.2337 28.2864 44.3606 35.0592 38.5262 35.0592 38.5262 52.4399 49.9634 52.4399C51.3312 52.4399 52.44 51.3282 52.44 49.9613L52.44 10.0387C52.44 8.67175 51.3312 7.56006 49.9634 7.56006" fill="#FAFAFA" fill-rule="evenodd"/></g></g></g></g></g><g clip-path="url(#clip7)"><g clip-path="url(#clip8)"><g clip-path="url(#clip9)"><path d="M41.572 0 2.42801 0C1.08701 0 0 1.08997 0 2.43005L0 41.5699C0 42.91 1.08701 44 2.42801 44L23.502 44 23.502 26.96 17.768 26.96 17.768 20.3199 23.502 20.3199 23.502 15.42C23.502 9.73999 26.973 6.65002 32.043 6.65002 34.471 6.65002 36.558 6.82996 37.166 6.91003L37.166 12.85 33.65 12.85C30.893 12.85 30.359 14.16 30.359 16.08L30.359 20.3199 36.935 20.3199 36.079 26.96 30.359 26.96 30.359 44 41.572 44C42.913 44 44 42.91 44 41.5699L44 2.43005C44 1.08997 42.913 0 41.572 0" fill="#FAFAFA" fill-rule="evenodd"/></g></g></g></g></svg>