<svg width="60" height="60" xmlns="http://www.w3.org/2000/svg" xmlns:xlink="http://www.w3.org/1999/xlink" overflow="hidden"><defs><filter id="fx0" x="-10%" y="-10%" width="120%" height="120%" filterUnits="userSpaceOnUse" primitiveUnits="userSpaceOnUse"><feComponentTransfer color-interpolation-filters="sRGB"><feFuncR type="discrete" tableValues="0 0"/><feFuncG type="discrete" tableValues="0 0"/><feFuncB type="discrete" tableValues="0 0"/><feFuncA type="linear" slope="0.4" intercept="0"/></feComponentTransfer><feGaussianBlur stdDeviation="2.22222 2.22222"/></filter><clipPath id="clip1"><rect x="-8" y="-8" width="60" height="60"/></clipPath><clipPath id="clip2"><rect x="-4" y="-4" width="69" height="69"/></clipPath><clipPath id="clip3"><rect x="0" y="0" width="60" height="60"/></clipPath><clipPath id="clip4"><rect x="7" y="7" width="46" height="46"/></clipPath><clipPath id="clip5"><rect x="7" y="7" width="46" height="46"/></clipPath><clipPath id="clip6"><rect x="7" y="7" width="46" height="46"/></clipPath><clipPath id="clip7"><rect x="0" y="0" width="44" height="44"/></clipPath><clipPath id="clip8"><rect x="0" y="0" width="44" height="44"/></clipPath><clipPath id="clip9"><rect x="0" y="0" width="44" height="44"/></clipPath></defs><g clip-path="url(#clip1)" transform="translate(8 8)"><g clip-path="url(#clip2)" filter="url(#fx0)" transform="translate(-8 -8)"><g clip-path="url(#clip3)"><g clip-path="url(#clip4)"><g clip-path="url(#clip5)"><g clip-path="url(#clip6)"><path d="M47.2625 52.4399 12.7375 52.4399C9.87848 52.4399 7.56 50.1246 7.56 47.2584L7.56 12.7416C7.56 9.87537 9.87848 7.56006 12.7375 7.56006L47.2625 7.56006C50.1226 7.56006 52.44 9.87537 52.44 12.7416L52.44 47.2584C52.44 50.1246 50.1226 52.4399 47.2625 52.4399L47.2625 52.4399ZM30 21.3708C25.2325 21.3708 21.3688 25.2366 21.3688 30 21.3688 34.7634 25.2325 38.6292 30 38.6292 34.7664 38.6292 38.6312 34.7634 38.6312 30 38.6312 25.2366 34.7664 21.3708 30 21.3708L30 21.3708ZM47.2625 14.4655C47.2625 13.5066 46.4893 12.7416 45.5346 12.7416L40.3571 12.7416C39.4034 12.7416 38.6312 13.5066 38.6312 14.4655L38.6312 19.647C38.6312 20.5956 39.4034 21.3708 40.3571 21.3708L45.5346 21.3708C46.4893 21.3708 47.2625 20.5956 47.2625 19.647 47.2625 19.647 47.2625 20.5956 47.2625 19.647L47.2625 14.4655 47.2625 14.4655ZM47.2625 26.5422 43.3559 26.5422C43.6404 27.6539 43.8088 28.8065 43.8088 30 43.8088 37.6295 37.6265 43.8108 30 43.8108 22.3735 43.8108 16.1912 37.6295 16.1912 30 16.1912 28.8065 16.3605 27.6539 16.6451 26.5422L12.7375 26.5422 12.7375 45.5345C12.7375 46.4833 13.5107 47.2584 14.4654 47.2584L45.5346 47.2584C46.4893 47.2584 47.2625 46.4833 47.2625 45.5345 47.2625 45.5345 47.2625 46.4833 47.2625 45.5345L47.2625 26.5422 47.2625 26.5422Z" fill="#FAFAFA" fill-rule="evenodd"/></g></g></g></g></g><g clip-path="url(#clip7)"><g clip-path="url(#clip8)"><g clip-path="url(#clip9)"><path d="M38.924 44 5.07599 44C2.27301 44 0 41.73 0 38.92L0 5.07996C0 2.27002 2.27301 0 5.07599 0L38.924 0C41.728 0 44 2.27002 44 5.07996L44 38.92C44 41.73 41.728 44 38.924 44L38.924 44ZM22 13.54C17.326 13.54 13.538 17.33 13.538 22 13.538 26.67 17.326 30.46 22 30.46 26.673 30.46 30.462 26.67 30.462 22 30.462 17.33 26.673 13.54 22 13.54L22 13.54ZM38.924 6.77002C38.924 5.82996 38.166 5.07996 37.23 5.07996L32.154 5.07996C31.219 5.07996 30.462 5.82996 30.462 6.77002L30.462 11.85C30.462 12.78 31.219 13.54 32.154 13.54L37.23 13.54C38.166 13.54 38.924 12.78 38.924 11.85 38.924 11.85 38.924 12.78 38.924 11.85L38.924 6.77002 38.924 6.77002ZM38.924 18.61 35.094 18.61C35.373 19.7 35.538 20.83 35.538 22 35.538 29.48 29.477 35.54 22 35.54 14.523 35.54 8.46198 29.48 8.46198 22 8.46198 20.83 8.62799 19.7 8.90698 18.61L5.07599 18.61 5.07599 37.23C5.07599 38.16 5.83398 38.92 6.77002 38.92L37.23 38.92C38.166 38.92 38.924 38.16 38.924 37.23 38.924 37.23 38.924 38.16 38.924 37.23L38.924 18.61 38.924 18.61Z" fill="#FAFAFA" fill-rule="evenodd"/></g></g></g></g></svg>