<svg width="60" height="60" xmlns="http://www.w3.org/2000/svg" xmlns:xlink="http://www.w3.org/1999/xlink" overflow="hidden"><defs><filter id="fx0" x="-10%" y="-10%" width="120%" height="120%" filterUnits="userSpaceOnUse" primitiveUnits="userSpaceOnUse"><feComponentTransfer color-interpolation-filters="sRGB"><feFuncR type="discrete" tableValues="0 0"/><feFuncG type="discrete" tableValues="0 0"/><feFuncB type="discrete" tableValues="0 0"/><feFuncA type="linear" slope="0.4" intercept="0"/></feComponentTransfer><feGaussianBlur stdDeviation="2.22222 2.22222"/></filter><clipPath id="clip1"><rect x="-8" y="-8" width="60" height="60"/></clipPath><clipPath id="clip2"><rect x="-4" y="-4" width="69" height="69"/></clipPath><clipPath id="clip3"><rect x="0" y="0" width="60" height="60"/></clipPath><clipPath id="clip4"><rect x="7" y="7" width="46" height="46"/></clipPath><clipPath id="clip5"><rect x="7" y="7" width="46" height="46"/></clipPath><clipPath id="clip6"><rect x="7" y="7" width="46" height="46"/></clipPath><clipPath id="clip7"><rect x="0" y="0" width="44" height="44"/></clipPath><clipPath id="clip8"><rect x="0" y="0" width="44" height="44"/></clipPath><clipPath id="clip9"><rect x="0" y="0" width="44" height="44"/></clipPath></defs><g clip-path="url(#clip1)" transform="translate(8 8)"><g clip-path="url(#clip2)" filter="url(#fx0)" transform="translate(-8 -8)"><g clip-path="url(#clip3)"><g clip-path="url(#clip4)"><g clip-path="url(#clip5)"><g clip-path="url(#clip6)"><path d="M49.1148 7.55994 10.8708 7.55994C9.0451 7.55994 7.56 9.0083 7.56 10.7933L7.56 49.2064C7.56 50.9915 9.0451 52.4399 10.8708 52.4399L49.1148 52.4399C50.9406 52.4399 52.44 50.9915 52.44 49.2064L52.44 10.7933C52.44 9.0083 50.9406 7.55994 49.1148 7.55994ZM17.5356 13.7412C19.6664 13.7412 21.3963 15.465 21.3963 17.5967 21.3963 19.7285 19.6664 21.4523 17.5356 21.4523 15.3956 21.4523 13.6708 19.7285 13.6708 17.5967 13.6708 15.465 15.3956 13.7412 17.5356 13.7412ZM14.2002 24.3899 20.8669 24.3899 20.8669 45.7997 14.2002 45.7997 14.2002 24.3899ZM25.0458 24.3899 31.428 24.3899 31.428 27.3071 31.5197 27.3071C32.4072 25.624 34.59 23.8492 37.8234 23.8492 44.5656 23.8492 45.81 28.2863 45.81 34.0594L45.81 45.7997 39.1596 45.7997 39.1596 35.3855C39.1596 32.9069 39.1086 29.7142 35.6916 29.7142 32.2236 29.7142 31.7033 32.4174 31.7033 35.2122L31.7033 45.7997 25.0458 45.7997 25.0458 24.3899Z" fill="#FAFAFA" fill-rule="evenodd"/></g></g></g></g></g><g clip-path="url(#clip7)"><g clip-path="url(#clip8)"><g clip-path="url(#clip9)"><path d="M40.74 0 3.24597 0C1.45599 0 0 1.42004 0 3.17004L0 40.83C0 42.58 1.45599 44 3.24597 44L40.74 44C42.53 44 44 42.58 44 40.83L44 3.17004C44 1.42004 42.53 0 40.74 0ZM9.78003 6.06006C11.869 6.06006 13.565 7.75 13.565 9.83997 13.565 11.9301 11.869 13.62 9.78003 13.62 7.68201 13.62 5.99103 11.9301 5.99103 9.83997 5.99103 7.75 7.68201 6.06006 9.78003 6.06006ZM6.51001 16.5 13.046 16.5 13.046 37.49 6.51001 37.49 6.51001 16.5ZM17.143 16.5 23.4 16.5 23.4 19.36 23.49 19.36C24.36 17.71 26.5 15.97 29.67 15.97 36.28 15.97 37.5 20.3199 37.5 25.98L37.5 37.49 30.98 37.49 30.98 27.28C30.98 24.85 30.93 21.72 27.58 21.72 24.18 21.72 23.67 24.37 23.67 27.11L23.67 37.49 17.143 37.49 17.143 16.5Z" fill="#FAFAFA" fill-rule="evenodd"/></g></g></g></g></svg>