<svg width="71" height="60" xmlns="http://www.w3.org/2000/svg" xmlns:xlink="http://www.w3.org/1999/xlink" overflow="hidden"><defs><filter id="fx0" x="-10%" y="-10%" width="120%" height="120%" filterUnits="userSpaceOnUse" primitiveUnits="userSpaceOnUse"><feComponentTransfer color-interpolation-filters="sRGB"><feFuncR type="discrete" tableValues="0 0"/><feFuncG type="discrete" tableValues="0 0"/><feFuncB type="discrete" tableValues="0 0"/><feFuncA type="linear" slope="0.4" intercept="0"/></feComponentTransfer><feGaussianBlur stdDeviation="2.22222 2.22222"/></filter><clipPath id="clip1"><rect x="-8" y="-8" width="71" height="60"/></clipPath><clipPath id="clip2"><rect x="-2" y="-4" width="78" height="69"/></clipPath><clipPath id="clip3"><rect x="0" y="0" width="73" height="60"/></clipPath><clipPath id="clip4"><rect x="8" y="7" width="57" height="46"/></clipPath><clipPath id="clip5"><rect x="8" y="7" width="57" height="46"/></clipPath><clipPath id="clip6"><rect x="8" y="7" width="57" height="46"/></clipPath><clipPath id="clip7"><rect x="0" y="0" width="55" height="44"/></clipPath><clipPath id="clip8"><rect x="0" y="0" width="55" height="44"/></clipPath><clipPath id="clip9"><rect x="0" y="0" width="55" height="44"/></clipPath></defs><g clip-path="url(#clip1)" transform="translate(8 8)"><g clip-path="url(#clip2)" filter="url(#fx0)" transform="translate(-9 -8)"><g clip-path="url(#clip3)"><g clip-path="url(#clip4)"><g clip-path="url(#clip5)"><g clip-path="url(#clip6)"><path d="M64.55 12.8741C62.4865 13.7717 60.268 14.3838 57.9393 14.6592 60.3159 13.2516 62.1407 11.0382 63.0006 8.38623 60.7759 9.69177 58.3127 10.6302 55.6913 11.1403 53.5921 8.93701 50.6004 7.56006 47.2905 7.56006 40.9339 7.56006 35.7808 12.6294 35.7808 18.8922 35.7808 19.7795 35.8818 20.6466 36.0787 21.4728 26.5131 21.0037 18.0318 16.485 12.3555 9.63062 11.3651 11.3035 10.797 13.2516 10.797 15.3324 10.797 19.2594 12.8289 22.7274 15.9174 24.7572 14.0304 24.7063 12.2556 24.1963 10.7042 23.3394 10.7031 23.3904 10.7031 23.4413 10.7031 23.4822 10.7031 28.98 14.671 33.5496 19.9362 34.6002 18.9703 34.8552 17.9533 34.998 16.9037 34.998 16.1622 34.998 15.441 34.9265 14.7382 34.7939 16.203 39.2922 20.4533 42.5663 25.4901 42.6582 21.5508 45.6978 16.5886 47.5032 11.1958 47.5032 10.2666 47.5032 9.35059 47.4521 8.44995 47.3502 13.5439 50.5632 19.5934 52.4399 26.0929 52.4399 47.263 52.4399 58.84 35.1714 58.84 20.208 58.84 19.7083 58.8288 19.2288 58.8063 18.7391 61.0554 17.1378 63.0067 15.1487 64.55 12.8741" fill="#FAFAFA" fill-rule="evenodd"/></g></g></g></g></g><g clip-path="url(#clip7)"><g clip-path="url(#clip8)"><g clip-path="url(#clip9)"><path d="M55 5.20996C52.977 6.08997 50.802 6.68994 48.519 6.95996 50.849 5.57996 52.638 3.41003 53.481 0.810059 51.3 2.08997 48.885 3.01001 46.315 3.51001 44.257 1.34998 41.324 0 38.079 0 31.847 0 26.795 4.96997 26.795 11.11 26.795 11.98 26.894 12.83 27.087 13.64 17.709 13.1801 9.39398 8.75 3.82898 2.03003 2.85797 3.67004 2.30103 5.57996 2.30103 7.62 2.30103 11.47 4.29303 14.87 7.32098 16.86 5.47101 16.8101 3.73102 16.3101 2.21002 15.47 2.20898 15.52 2.20898 15.5699 2.20898 15.61 2.20898 21 6.099 25.48 11.261 26.51 10.314 26.76 9.31702 26.9 8.28802 26.9 7.56097 26.9 6.854 26.83 6.16498 26.7 7.60101 31.11 11.768 34.3199 16.706 34.41 12.844 37.39 7.979 39.16 2.69202 39.16 1.78101 39.16 0.882996 39.11 0 39.01 4.99402 42.16 10.925 44 17.297 44 38.052 44 49.402 27.0699 49.402 12.4 49.402 11.91 49.391 11.4399 49.369 10.96 51.574 9.39001 53.487 7.43994 55 5.20996" fill="#FAFAFA" fill-rule="evenodd"/></g></g></g></g></svg>